# xmcd
#
# Track frame offsets:
#	150
#	27233
#	64337
#	81307
#	113192
#	139672
#	168999
#	201064
#	233535
#
# Disc length: 3317 seconds
#
# Revision: 0
# Processed by: cddbd v1.5.2PL0 Copyright (c) Steve Scherf et al.
# Submitted via: audiograbber 1.83.01
#
DISCID=730cf309
DTITLE=Grateful Dead - 94-07-01 Shoreline Amphitheatre, Mountain View CA
DYEAR=1900
DGENRE=
TTITLE0=Cold Rain and Snow
TTITLE1=Wang Dang Doodle
TTITLE2=Dire Wolf
TTITLE3=Queen Jane Approximately
TTITLE4=Stagger Lee
TTITLE5=Black Throated Wind
TTITLE6=Bertha
TTITLE7=Picasso Moon
TTITLE8=Don't Ease Me In
EXTD=
EXTT0=
EXTT1=
EXTT2=
EXTT3=
EXTT4=
EXTT5=
EXTT6=
EXTT7=
EXTT8=
PLAYORDER=
